<?xml version="1.0" encoding="UTF-8"?>
<!DOCTYPE svg PUBLIC "-//W3C//DTD SVG 1.1//EN" "http://www.w3.org/Graphics/SVG/1.1/DTD/svg11.dtd">
<svg xmlns="http://www.w3.org/2000/svg" version="1.1" width="1024px" height="1024px" style="shape-rendering:geometricPrecision; text-rendering:geometricPrecision; image-rendering:optimizeQuality; fill-rule:evenodd; clip-rule:evenodd" xmlns:xlink="http://www.w3.org/1999/xlink">
<g><path style="opacity:1" fill="#000000" d="M -0.5,-0.5 C 340.833,-0.5 682.167,-0.5 1023.5,-0.5C 1023.5,340.833 1023.5,682.167 1023.5,1023.5C 682.167,1023.5 340.833,1023.5 -0.5,1023.5C -0.5,682.167 -0.5,340.833 -0.5,-0.5 Z"/></g>
<g><path style="opacity:1" fill="#303030" d="M 332.5,213.5 C 332.5,352.5 332.5,491.5 332.5,630.5C 302.5,630.5 272.5,630.5 242.5,630.5C 271.995,629.502 301.662,629.169 331.5,629.5C 331.167,490.666 331.5,351.999 332.5,213.5 Z"/></g>
<g><path style="opacity:1" fill="#fefefe" d="M 332.5,213.5 C 346.816,228.816 361.816,243.482 377.5,257.5C 392.473,243.194 407.14,228.527 421.5,213.5C 436.5,228.167 451.5,242.833 466.5,257.5C 481.5,242.833 496.5,228.167 511.5,213.5C 526.5,228.167 541.5,242.833 556.5,257.5C 571.486,243.014 586.319,228.347 601,213.5C 615.681,228.347 630.514,243.014 645.5,257.5C 660.5,242.833 675.5,228.167 690.5,213.5C 705.5,228.167 720.5,242.833 735.5,257.5C 749.854,243.479 764.187,229.479 778.5,215.5C 779.825,389.345 779.825,563.345 778.5,737.5C 769.224,778.273 743.89,802.106 702.5,809C 574.5,809.667 446.5,809.667 318.5,809C 274.829,800.161 249.829,773.661 243.5,729.5C 243.5,696.833 243.5,664.167 243.5,631.5C 273.338,631.831 303.005,631.498 332.5,630.5C 332.5,491.5 332.5,352.5 332.5,213.5 Z"/></g>
<g><path style="opacity:1" fill="#cfcfcf" d="M 778.5,737.5 C 779.825,563.345 779.825,389.345 778.5,215.5C 778.783,214.711 779.283,214.044 780,213.5C 780.667,386.5 780.667,559.5 780,732.5C 779.802,734.382 779.302,736.048 778.5,737.5 Z"/></g>
<g><path style="opacity:1" fill="#000000" d="M 393.5,303.5 C 502.167,303.5 610.833,303.5 719.5,303.5C 719.5,443.5 719.5,583.5 719.5,723.5C 715.722,744.07 703.389,752.904 682.5,750C 670.907,745.244 663.907,736.744 661.5,724.5C 661.5,693.167 661.5,661.833 661.5,630.5C 572.335,629.501 483.002,629.167 393.5,629.5C 393.5,520.833 393.5,412.167 393.5,303.5 Z"/></g>
<g><path style="opacity:1" fill="#737373" d="M 392.5,303.5 C 501.665,302.501 610.999,302.167 720.5,302.5C 720.833,443.001 720.5,583.334 719.5,723.5C 719.5,583.5 719.5,443.5 719.5,303.5C 610.833,303.5 502.167,303.5 393.5,303.5C 393.167,303.5 392.833,303.5 392.5,303.5 Z"/></g>
<g><path style="opacity:1" fill="#919191" d="M 421.5,361.5 C 481.5,361.5 541.5,361.5 601.5,361.5C 601.5,381.833 601.5,402.167 601.5,422.5C 541.5,422.5 481.5,422.5 421.5,422.5C 421.5,402.167 421.5,381.833 421.5,361.5 Z"/></g>
<g><path style="opacity:1" fill="#fefffe" d="M 422.5,362.5 C 481.833,362.5 541.167,362.5 600.5,362.5C 600.5,382.167 600.5,401.833 600.5,421.5C 541.167,421.5 481.833,421.5 422.5,421.5C 422.5,401.833 422.5,382.167 422.5,362.5 Z"/></g>
<g><path style="opacity:1" fill="#a4a4a4" d="M 690.5,362.5 C 670.833,362.5 651.167,362.5 631.5,362.5C 631.5,382.167 631.5,401.833 631.5,421.5C 651.167,421.5 670.833,421.5 690.5,421.5C 670.674,422.497 650.674,422.83 630.5,422.5C 630.5,402.167 630.5,381.833 630.5,361.5C 650.674,361.17 670.674,361.503 690.5,362.5 Z"/></g>
<g><path style="opacity:1" fill="#fefffe" d="M 690.5,362.5 C 690.5,382.167 690.5,401.833 690.5,421.5C 670.833,421.5 651.167,421.5 631.5,421.5C 631.5,401.833 631.5,382.167 631.5,362.5C 651.167,362.5 670.833,362.5 690.5,362.5 Z"/></g>
<g><path style="opacity:1" fill="#808080" d="M 600.5,511.5 C 600.5,491.5 600.5,471.5 600.5,451.5C 541.167,451.5 481.833,451.5 422.5,451.5C 422.5,471.5 422.5,491.5 422.5,511.5C 421.503,491.34 421.17,471.007 421.5,450.5C 481.5,450.5 541.5,450.5 601.5,450.5C 601.83,471.007 601.497,491.34 600.5,511.5 Z"/></g>
<g><path style="opacity:1" fill="#fefefe" d="M 600.5,511.5 C 541.167,511.5 481.833,511.5 422.5,511.5C 422.5,491.5 422.5,471.5 422.5,451.5C 481.833,451.5 541.167,451.5 600.5,451.5C 600.5,471.5 600.5,491.5 600.5,511.5 Z"/></g>
<g><path style="opacity:1" fill="#cccccc" d="M 690.5,452.5 C 670.833,452.5 651.167,452.5 631.5,452.5C 631.5,472.167 631.5,491.833 631.5,511.5C 630.503,491.674 630.17,471.674 630.5,451.5C 650.674,451.17 670.674,451.503 690.5,452.5 Z"/></g>
<g><path style="opacity:1" fill="#fefffe" d="M 690.5,452.5 C 690.5,472.167 690.5,491.833 690.5,511.5C 670.833,511.5 651.167,511.5 631.5,511.5C 631.5,491.833 631.5,472.167 631.5,452.5C 651.167,452.5 670.833,452.5 690.5,452.5 Z"/></g>
<g><path style="opacity:1" fill="#3b3b3b" d="M 392.5,303.5 C 392.833,303.5 393.167,303.5 393.5,303.5C 393.5,412.167 393.5,520.833 393.5,629.5C 483.002,629.167 572.335,629.501 661.5,630.5C 571.833,630.5 482.167,630.5 392.5,630.5C 392.5,521.5 392.5,412.5 392.5,303.5 Z"/></g>
<g><path style="opacity:1" fill="#bebebe" d="M 392.5,630.5 C 482.167,630.5 571.833,630.5 661.5,630.5C 661.5,661.833 661.5,693.167 661.5,724.5C 660.502,693.671 660.169,662.671 660.5,631.5C 570.998,631.833 481.665,631.499 392.5,630.5 Z"/></g>
<g><path style="opacity:1" fill="#cacaca" d="M 242.5,630.5 C 272.5,630.5 302.5,630.5 332.5,630.5C 303.005,631.498 273.338,631.831 243.5,631.5C 243.5,664.167 243.5,696.833 243.5,729.5C 242.502,696.671 242.168,663.671 242.5,630.5 Z"/></g>
</svg>
